<?xml version="1.0" encoding="UTF-8" standalone="no"?>
<!-- Created with Inkscape (http://www.inkscape.org/) -->

<svg
   xmlns:osb="http://www.openswatchbook.org/uri/2009/osb"
   xmlns:dc="http://purl.org/dc/elements/1.1/"
   xmlns:cc="http://creativecommons.org/ns#"
   xmlns:rdf="http://www.w3.org/1999/02/22-rdf-syntax-ns#"
   xmlns:svg="http://www.w3.org/2000/svg"
   xmlns="http://www.w3.org/2000/svg"
   xmlns:xlink="http://www.w3.org/1999/xlink"
   xmlns:sodipodi="http://sodipodi.sourceforge.net/DTD/sodipodi-0.dtd"
   xmlns:inkscape="http://www.inkscape.org/namespaces/inkscape"
   width="744.09448819"
   height="1052.3622047"
   id="svg2"
   version="1.1"
   inkscape:version="0.48.0 r9654"
   sodipodi:docname="icon.svg">
  <defs
     id="defs4">
    <linearGradient
       id="linearGradient3860"
       osb:paint="solid">
      <stop
         style="stop-color:#008000;stop-opacity:1;"
         offset="0"
         id="stop3862" />
    </linearGradient>
    <linearGradient
       inkscape:collect="always"
       xlink:href="#linearGradient3860"
       id="linearGradient3864"
       x1="218.26403"
       y1="697.03878"
       x2="252.85941"
       y2="697.03878"
       gradientUnits="userSpaceOnUse"
       gradientTransform="translate(-16.764025,-11.384257)" />
    <linearGradient
       inkscape:collect="always"
       xlink:href="#linearGradient3860-3"
       id="linearGradient3864-5"
       x1="218.26402"
       y1="697.03876"
       x2="252.85941"
       y2="697.03876"
       gradientUnits="userSpaceOnUse"
       gradientTransform="translate(8.5294097,-6.5128897)" />
    <linearGradient
       id="linearGradient3860-3"
       osb:paint="solid">
      <stop
         style="stop-color:#008000;stop-opacity:1;"
         offset="0"
         id="stop3862-4" />
    </linearGradient>
    <filter
       inkscape:collect="always"
       id="filter3921">
      <feGaussianBlur
         inkscape:collect="always"
         stdDeviation="0.47258033"
         id="feGaussianBlur3923" />
    </filter>
    <linearGradient
       inkscape:collect="always"
       xlink:href="#linearGradient3860-8"
       id="linearGradient3864-2"
       x1="218.26402"
       y1="697.03876"
       x2="252.85941"
       y2="697.03876"
       gradientUnits="userSpaceOnUse"
       gradientTransform="translate(34.689153,-1.9654624)" />
    <linearGradient
       id="linearGradient3860-8"
       osb:paint="solid">
      <stop
         style="stop-color:#96bf3d;stop-opacity:1;"
         offset="0"
         id="stop3862-6" />
    </linearGradient>
    <filter
       color-interpolation-filters="sRGB"
       inkscape:collect="always"
       id="filter3921-6">
      <feGaussianBlur
         inkscape:collect="always"
         stdDeviation="0.47258033"
         id="feGaussianBlur3923-6" />
    </filter>
  </defs>
  <sodipodi:namedview
     id="base"
     pagecolor="#ffffff"
     bordercolor="#666666"
     borderopacity="1.0"
     inkscape:pageopacity="0.0"
     inkscape:pageshadow="2"
     inkscape:zoom="8"
     inkscape:cx="269.25828"
     inkscape:cy="357.97772"
     inkscape:document-units="px"
     inkscape:current-layer="layer1"
     showgrid="false"
     inkscape:window-width="1218"
     inkscape:window-height="778"
     inkscape:window-x="-8"
     inkscape:window-y="-8"
     inkscape:window-maximized="1" />
  <metadata
     id="metadata7">
    <rdf:RDF>
      <cc:Work
         rdf:about="">
        <dc:format>image/svg+xml</dc:format>
        <dc:type
           rdf:resource="http://purl.org/dc/dcmitype/StillImage" />
        <dc:title />
      </cc:Work>
    </rdf:RDF>
  </metadata>
  <g
     inkscape:label="Layer 1"
     inkscape:groupmode="layer"
     id="layer1">
    <path
       inkscape:export-ydpi="161.31801"
       inkscape:export-xdpi="161.31801"
       inkscape:export-filename="C:\_projects\home.finance.ua\source\HomeFinance\res\drawable-hdpi\icon.png"
       sodipodi:nodetypes="sssssssssssssssssssssssssssssssssssssssssssssssssssssssssssssssssssssssssssssssssssssssssssssssssssssssssssssssssssssssssssssssssscsssscsccsccsc"
       inkscape:connector-curvature="0"
       d="m 219.29777,694.68872 c 1.0581,0 1.9158,0.85782 1.9158,1.91604 0,1.05819 -0.8577,1.91718 -1.9158,1.91718 -1.0584,0 -1.9173,-0.85899 -1.9173,-1.91718 0,-1.05822 0.8589,-1.91604 1.9173,-1.91604 z m 0,-4.18008 c 1.0581,0 1.9158,0.85898 1.9158,1.9172 0,1.05819 -0.8577,1.91601 -1.9158,1.91601 -1.0584,0 -1.9173,-0.85781 -1.9173,-1.91601 0,-1.05822 0.8589,-1.9172 1.9173,-1.9172 z m -4.1802,0 c 1.0581,0 1.9173,0.85898 1.9173,1.9172 0,1.05819 -0.85919,1.91601 -1.9173,1.91601 -1.0581,0 -1.9161,-0.85781 -1.9161,-1.91601 0,-1.05822 0.858,-1.9172 1.9161,-1.9172 z m -4.18125,0 c 1.05945,0 1.91715,0.85898 1.91715,1.9172 0,1.05819 -0.8577,1.91601 -1.91715,1.91601 -1.05702,0 -1.91484,-0.85781 -1.91484,-1.91601 0,-1.05822 0.85782,-1.9172 1.91484,-1.9172 z m -4.17891,-4.17999 c 1.05822,0 1.91718,0.8577 1.91718,1.91594 0,1.05936 -0.85896,1.91602 -1.91718,1.91602 -1.05702,0 -1.91601,-0.85665 -1.91601,-1.91602 0,-1.05825 0.85899,-1.91594 1.91601,-1.91594 z m 4.17891,0 c 1.05945,0 1.91715,0.8577 1.91715,1.91594 0,1.05936 -0.8577,1.91602 -1.91715,1.91602 -1.05702,0 -1.91484,-0.85665 -1.91484,-1.91602 0,-1.05825 0.85782,-1.91594 1.91484,-1.91594 z m 4.18125,0 c 1.0581,0 1.9173,0.8577 1.9173,1.91594 0,1.05936 -0.85919,1.91602 -1.9173,1.91602 -1.0581,0 -1.9161,-0.85665 -1.9161,-1.91602 0,-1.05825 0.858,-1.91594 1.9161,-1.91594 z m 4.1802,0 c 1.0581,0 1.9158,0.8577 1.9158,1.91594 0,1.05936 -0.8577,1.91602 -1.9158,1.91602 -1.0584,0 -1.9173,-0.85665 -1.9173,-1.91602 0,-1.05825 0.8589,-1.91594 1.9173,-1.91594 z m 4.1811,0 c 1.0581,0 1.9161,0.8577 1.9161,1.91594 0,1.05936 -0.858,1.91602 -1.9161,1.91602 -1.0581,0 -1.9161,-0.85665 -1.9161,-1.91602 0,-1.05825 0.858,-1.91594 1.9161,-1.91594 z m -12.54255,-4.18141 c 1.05945,0 1.91715,0.8592 1.91715,1.9173 0,1.0581 -0.8577,1.9161 -1.91715,1.9161 -1.05702,0 -1.91484,-0.85799 -1.91484,-1.9161 0,-1.0581 0.85782,-1.9173 1.91484,-1.9173 z m 4.18125,0 c 1.0581,0 1.9173,0.8592 1.9173,1.9173 0,1.0581 -0.85919,1.9161 -1.9173,1.9161 -1.0581,0 -1.9161,-0.85799 -1.9161,-1.9161 0,-1.0581 0.858,-1.9173 1.9161,-1.9173 z m 4.1802,0 c 1.0581,0 1.9158,0.8592 1.9158,1.9173 0,1.0581 -0.8577,1.9161 -1.9158,1.9161 -1.0584,0 -1.9173,-0.85799 -1.9173,-1.9161 0,-1.0581 0.8589,-1.9173 1.9173,-1.9173 z m -4.1802,-4.17989 c 1.0581,0 1.9173,0.8577 1.9173,1.9158 0,1.0584 -0.85919,1.91729 -1.9173,1.91729 -1.0581,0 -1.9161,-0.85889 -1.9161,-1.91729 0,-1.0581 0.858,-1.9158 1.9161,-1.9158 z m 8.3613,16.72136 c 1.0581,0 1.9161,0.85782 1.9161,1.91604 0,1.05819 -0.858,1.91718 -1.9161,1.91718 -1.0581,0 -1.9161,-0.85898 -1.9161,-1.91718 0,-1.05822 0.858,-1.91604 1.9161,-1.91604 z m 0,-4.18007 c 1.0581,0 1.9161,0.85898 1.9161,1.9172 0,1.05819 -0.858,1.91601 -1.9161,1.91601 -1.0581,0 -1.9161,-0.85781 -1.9161,-1.91601 0,-1.05822 0.858,-1.9172 1.9161,-1.9172 z m 4.179,-4.17999 c 1.0581,0 1.9161,0.8577 1.9161,1.91594 0,1.05936 -0.858,1.91602 -1.9161,1.91602 -1.0584,0 -1.9161,-0.85665 -1.9161,-1.91602 0,-1.05825 0.8577,-1.91594 1.9161,-1.91594 z m -4.179,-4.18141 c 1.0581,0 1.9161,0.8592 1.9161,1.9173 0,1.0581 -0.858,1.9161 -1.9161,1.9161 -1.0581,0 -1.9161,-0.85799 -1.9161,-1.9161 0,-1.0581 0.858,-1.9173 1.9161,-1.9173 z m -4.1811,-4.17989 c 1.0581,0 1.9158,0.8577 1.9158,1.9158 0,1.0584 -0.8577,1.91729 -1.9158,1.91729 -1.0584,0 -1.9173,-0.85889 -1.9173,-1.91729 0,-1.0581 0.8589,-1.9158 1.9173,-1.9158 z m 8.3601,16.72136 c 1.0581,0 1.9161,0.85782 1.9161,1.91604 0,1.05819 -0.858,1.91718 -1.9161,1.91718 -1.0584,0 -1.9161,-0.85898 -1.9161,-1.91718 0,-1.05822 0.8577,-1.91604 1.9161,-1.91604 z m 0,-4.18007 c 1.0581,0 1.9161,0.85898 1.9161,1.9172 0,1.05819 -0.858,1.91601 -1.9161,1.91601 -1.0584,0 -1.9161,-0.85781 -1.9161,-1.91601 0,-1.05822 0.8577,-1.9172 1.9161,-1.9172 z m 4.1799,-4.17999 c 1.0596,0 1.9173,0.8577 1.9173,1.91594 0,1.05936 -0.85769,1.91602 -1.9173,1.91602 -1.0569,0 -1.9146,-0.85665 -1.9146,-1.91602 0,-1.05825 0.8577,-1.91594 1.9146,-1.91594 z m -4.1799,-4.18141 c 1.0581,0 1.9161,0.8592 1.9161,1.9173 0,1.0581 -0.858,1.9161 -1.9161,1.9161 -1.0584,0 -1.9161,-0.85799 -1.9161,-1.9161 0,-1.0581 0.8577,-1.9173 1.9161,-1.9173 z m -4.179,-4.17989 c 1.0581,0 1.9161,0.8577 1.9161,1.9158 0,1.0584 -0.858,1.91729 -1.9161,1.91729 -1.0581,0 -1.9161,-0.85889 -1.9161,-1.91729 0,-1.0581 0.858,-1.9158 1.9161,-1.9158 z m -4.1811,-4.18021 c 1.0581,0 1.9158,0.85771 1.9158,1.91611 0,1.05809 -0.8577,1.9158 -1.9158,1.9158 -1.0584,0 -1.9173,-0.85771 -1.9173,-1.9158 0,-1.0584 0.8589,-1.91611 1.9173,-1.91611 z m -8.36144,20.90157 c 1.05945,0 1.91714,0.85782 1.91714,1.91604 0,1.05819 -0.85769,1.91718 -1.91714,1.91718 -1.05702,0 -1.91484,-0.85898 -1.91484,-1.91718 0,-1.05822 0.85782,-1.91604 1.91484,-1.91604 z m 4.18125,0 c 1.0581,0 1.9173,0.85782 1.9173,1.91604 0,1.05819 -0.8592,1.91718 -1.9173,1.91718 -1.0581,0 -1.9161,-0.85898 -1.9161,-1.91718 0,-1.05822 0.858,-1.91604 1.9161,-1.91604 z m 16.7988,-2.18786 0,4.10391 c 0,2.3496 -1.9077,4.25742 -4.2585,4.25742 -5.5722,0 -11.14681,0 -16.72155,0 -2.34961,0 -4.25508,-1.90782 -4.25508,-4.25742 l 0,-4.10391 c -2.31561,-0.041 -4.18125,-1.93242 -4.18125,-4.25626 0,-1.13445 0.44999,-2.21595 1.25156,-3.01514 4.18827,-4.1721 8.35552,-8.3649 12.54021,-12.5403 0.798,-0.7968 1.8786,-1.2423 3.006,-1.2423 1.1307,0 2.2113,0.4467 3.01051,1.2471 4.18229,4.1811 8.37059,8.3565 12.54599,12.5448 0.7956,0.7992 1.24111,1.8774 1.24111,3.00585 0,2.32383 -1.86451,4.21521 -4.17901,4.25625"
       style="fill:#000000;fill-opacity:1;fill-rule:evenodd;stroke:#000000;stroke-width:4;stroke-miterlimit:4;stroke-dasharray:none;filter:url(#filter3921)"
       id="path3072-5" />
    <rect
       style="fill:#000000;fill-opacity:1;stroke:none"
       id="rect3010-4"
       width="40"
       height="40"
       x="200.39999"
       y="612.76221"
       rx="5"
       ry="5"
       inkscape:export-filename="C:\_projects\home.finance.ua\source\HomeFinance\res\drawable-hdpi\icon.png"
       inkscape:export-xdpi="160.39594"
       inkscape:export-ydpi="160.39594" />
    <rect
       style="fill:#008000;fill-opacity:1;stroke:none"
       id="rect3010"
       width="40"
       height="40"
       x="200"
       y="612.36218"
       rx="5"
       ry="5"
       inkscape:export-filename="C:\_projects\home.finance.ua\source\HomeFinance\res\drawable-hdpi\icon.png"
       inkscape:export-xdpi="160.39594"
       inkscape:export-ydpi="160.39594" />
    <path
       sodipodi:nodetypes="sssssssssssssssssssssssssssssssssssssssssssssssssssssssssssssssssssssssssssssssssssssssssssssssssssssssssssssssssssssssssssssssssscsssscsccsccsc"
       inkscape:connector-curvature="0"
       d="m 220.39978,641.29673 c 1.0581,0 1.9158,0.85782 1.9158,1.91604 0,1.05819 -0.8577,1.91718 -1.9158,1.91718 -1.0584,0 -1.9173,-0.85899 -1.9173,-1.91718 0,-1.05822 0.8589,-1.91604 1.9173,-1.91604 z m 0,-4.18009 c 1.0581,0 1.9158,0.85899 1.9158,1.91721 0,1.05819 -0.8577,1.91601 -1.9158,1.91601 -1.0584,0 -1.9173,-0.85782 -1.9173,-1.91601 0,-1.05822 0.8589,-1.91721 1.9173,-1.91721 z m -4.1802,0 c 1.0581,0 1.9173,0.85899 1.9173,1.91721 0,1.05819 -0.8592,1.91601 -1.9173,1.91601 -1.0581,0 -1.9161,-0.85782 -1.9161,-1.91601 0,-1.05822 0.858,-1.91721 1.9161,-1.91721 z m -4.18125,0 c 1.05945,0 1.91715,0.85899 1.91715,1.91721 0,1.05819 -0.8577,1.91601 -1.91715,1.91601 -1.05702,0 -1.91484,-0.85782 -1.91484,-1.91601 0,-1.05822 0.85782,-1.91721 1.91484,-1.91721 z m -4.17891,-4.17999 c 1.05822,0 1.91718,0.8577 1.91718,1.91595 0,1.05936 -0.85896,1.91601 -1.91718,1.91601 -1.05702,0 -1.91601,-0.85665 -1.91601,-1.91601 0,-1.05825 0.85899,-1.91595 1.91601,-1.91595 z m 4.17891,0 c 1.05945,0 1.91715,0.8577 1.91715,1.91595 0,1.05936 -0.8577,1.91601 -1.91715,1.91601 -1.05702,0 -1.91484,-0.85665 -1.91484,-1.91601 0,-1.05825 0.85782,-1.91595 1.91484,-1.91595 z m 4.18125,0 c 1.0581,0 1.9173,0.8577 1.9173,1.91595 0,1.05936 -0.8592,1.91601 -1.9173,1.91601 -1.0581,0 -1.9161,-0.85665 -1.9161,-1.91601 0,-1.05825 0.858,-1.91595 1.9161,-1.91595 z m 4.1802,0 c 1.0581,0 1.9158,0.8577 1.9158,1.91595 0,1.05936 -0.8577,1.91601 -1.9158,1.91601 -1.0584,0 -1.9173,-0.85665 -1.9173,-1.91601 0,-1.05825 0.8589,-1.91595 1.9173,-1.91595 z m 4.1811,0 c 1.0581,0 1.9161,0.8577 1.9161,1.91595 0,1.05936 -0.858,1.91601 -1.9161,1.91601 -1.0581,0 -1.9161,-0.85665 -1.9161,-1.91601 0,-1.05825 0.858,-1.91595 1.9161,-1.91595 z m -12.54255,-4.1814 c 1.05945,0 1.91715,0.8592 1.91715,1.9173 0,1.0581 -0.8577,1.9161 -1.91715,1.9161 -1.05702,0 -1.91484,-0.858 -1.91484,-1.9161 0,-1.0581 0.85782,-1.9173 1.91484,-1.9173 z m 4.18125,0 c 1.0581,0 1.9173,0.8592 1.9173,1.9173 0,1.0581 -0.8592,1.9161 -1.9173,1.9161 -1.0581,0 -1.9161,-0.858 -1.9161,-1.9161 0,-1.0581 0.858,-1.9173 1.9161,-1.9173 z m 4.1802,0 c 1.0581,0 1.9158,0.8592 1.9158,1.9173 0,1.0581 -0.8577,1.9161 -1.9158,1.9161 -1.0584,0 -1.9173,-0.858 -1.9173,-1.9161 0,-1.0581 0.8589,-1.9173 1.9173,-1.9173 z m -4.1802,-4.1799 c 1.0581,0 1.9173,0.8577 1.9173,1.9158 0,1.0584 -0.8592,1.9173 -1.9173,1.9173 -1.0581,0 -1.9161,-0.8589 -1.9161,-1.9173 0,-1.0581 0.858,-1.9158 1.9161,-1.9158 z m 8.3613,16.72137 c 1.0581,0 1.9161,0.85782 1.9161,1.91604 0,1.05819 -0.858,1.91718 -1.9161,1.91718 -1.0581,0 -1.9161,-0.85899 -1.9161,-1.91718 0,-1.05822 0.858,-1.91604 1.9161,-1.91604 z m 0,-4.18008 c 1.0581,0 1.9161,0.85899 1.9161,1.91721 0,1.05819 -0.858,1.91601 -1.9161,1.91601 -1.0581,0 -1.9161,-0.85782 -1.9161,-1.91601 0,-1.05822 0.858,-1.91721 1.9161,-1.91721 z m 4.179,-4.17999 c 1.0581,0 1.9161,0.8577 1.9161,1.91595 0,1.05936 -0.858,1.91601 -1.9161,1.91601 -1.0584,0 -1.9161,-0.85665 -1.9161,-1.91601 0,-1.05825 0.8577,-1.91595 1.9161,-1.91595 z m -4.179,-4.1814 c 1.0581,0 1.9161,0.8592 1.9161,1.9173 0,1.0581 -0.858,1.9161 -1.9161,1.9161 -1.0581,0 -1.9161,-0.858 -1.9161,-1.9161 0,-1.0581 0.858,-1.9173 1.9161,-1.9173 z m -4.1811,-4.1799 c 1.0581,0 1.9158,0.8577 1.9158,1.9158 0,1.0584 -0.8577,1.9173 -1.9158,1.9173 -1.0584,0 -1.9173,-0.8589 -1.9173,-1.9173 0,-1.0581 0.8589,-1.9158 1.9173,-1.9158 z m 8.3601,16.72137 c 1.0581,0 1.9161,0.85782 1.9161,1.91604 0,1.05819 -0.858,1.91718 -1.9161,1.91718 -1.0584,0 -1.9161,-0.85899 -1.9161,-1.91718 0,-1.05822 0.8577,-1.91604 1.9161,-1.91604 z m 0,-4.18008 c 1.0581,0 1.9161,0.85899 1.9161,1.91721 0,1.05819 -0.858,1.91601 -1.9161,1.91601 -1.0584,0 -1.9161,-0.85782 -1.9161,-1.91601 0,-1.05822 0.8577,-1.91721 1.9161,-1.91721 z m 4.1799,-4.17999 c 1.0596,0 1.9173,0.8577 1.9173,1.91595 0,1.05936 -0.8577,1.91601 -1.9173,1.91601 -1.0569,0 -1.9146,-0.85665 -1.9146,-1.91601 0,-1.05825 0.8577,-1.91595 1.9146,-1.91595 z m -4.1799,-4.1814 c 1.0581,0 1.9161,0.8592 1.9161,1.9173 0,1.0581 -0.858,1.9161 -1.9161,1.9161 -1.0584,0 -1.9161,-0.858 -1.9161,-1.9161 0,-1.0581 0.8577,-1.9173 1.9161,-1.9173 z m -4.179,-4.1799 c 1.0581,0 1.9161,0.8577 1.9161,1.9158 0,1.0584 -0.858,1.9173 -1.9161,1.9173 -1.0581,0 -1.9161,-0.8589 -1.9161,-1.9173 0,-1.0581 0.858,-1.9158 1.9161,-1.9158 z m -4.1811,-4.1802 c 1.0581,0 1.9158,0.8577 1.9158,1.9161 0,1.0581 -0.8577,1.9158 -1.9158,1.9158 -1.0584,0 -1.9173,-0.8577 -1.9173,-1.9158 0,-1.0584 0.8589,-1.9161 1.9173,-1.9161 z m -8.36145,20.90157 c 1.05945,0 1.91715,0.85782 1.91715,1.91604 0,1.05819 -0.8577,1.91718 -1.91715,1.91718 -1.05702,0 -1.91484,-0.85899 -1.91484,-1.91718 0,-1.05822 0.85782,-1.91604 1.91484,-1.91604 z m 4.18125,0 c 1.0581,0 1.9173,0.85782 1.9173,1.91604 0,1.05819 -0.8592,1.91718 -1.9173,1.91718 -1.0581,0 -1.9161,-0.85899 -1.9161,-1.91718 0,-1.05822 0.858,-1.91604 1.9161,-1.91604 z m 16.7988,-2.18787 0,4.10391 c 0,2.3496 -1.9077,4.25742 -4.2585,4.25742 -5.5722,0 -11.1468,0 -16.72155,0 -2.3496,0 -4.25508,-1.90782 -4.25508,-4.25742 l 0,-4.10391 c -2.31561,-0.041 -4.18125,-1.93242 -4.18125,-4.25625 0,-1.13445 0.45,-2.21595 1.25157,-3.01515 4.18827,-4.1721 8.35551,-8.3649 12.54021,-12.5403 0.798,-0.7968 1.8786,-1.2423 3.006,-1.2423 1.1307,0 2.2113,0.4467 3.0105,1.2471 4.1823,4.1811 8.3706,8.3565 12.546,12.5448 0.7956,0.7992 1.2411,1.8774 1.2411,3.00585 0,2.32383 -1.8645,4.21521 -4.179,4.25625"
       style="fill:#000000;fill-opacity:1;fill-rule:evenodd;stroke:none"
       id="path3052"
       inkscape:export-filename="C:\_projects\home.finance.ua\source\HomeFinance\res\drawable-hdpi\icon.png"
       inkscape:export-xdpi="160.39594"
       inkscape:export-ydpi="160.39594" />
    <path
       id="path2999"
       style="fill:#ffffff;fill-opacity:1;fill-rule:evenodd;stroke:none"
       d="m 220.00009,640.89673 c 1.0581,0 1.9158,0.85782 1.9158,1.91604 0,1.05819 -0.8577,1.91718 -1.9158,1.91718 -1.0584,0 -1.9173,-0.85899 -1.9173,-1.91718 0,-1.05822 0.8589,-1.91604 1.9173,-1.91604 z m 0,-4.18009 c 1.0581,0 1.9158,0.85899 1.9158,1.91721 0,1.05819 -0.8577,1.91601 -1.9158,1.91601 -1.0584,0 -1.9173,-0.85782 -1.9173,-1.91601 0,-1.05822 0.8589,-1.91721 1.9173,-1.91721 z m -4.1802,0 c 1.0581,0 1.9173,0.85899 1.9173,1.91721 0,1.05819 -0.8592,1.91601 -1.9173,1.91601 -1.0581,0 -1.9161,-0.85782 -1.9161,-1.91601 0,-1.05822 0.858,-1.91721 1.9161,-1.91721 z m -4.18125,0 c 1.05945,0 1.91715,0.85899 1.91715,1.91721 0,1.05819 -0.8577,1.91601 -1.91715,1.91601 -1.05702,0 -1.91484,-0.85782 -1.91484,-1.91601 0,-1.05822 0.85782,-1.91721 1.91484,-1.91721 z m -4.17891,-4.17999 c 1.05822,0 1.91718,0.8577 1.91718,1.91595 0,1.05936 -0.85896,1.91601 -1.91718,1.91601 -1.05702,0 -1.91601,-0.85665 -1.91601,-1.91601 0,-1.05825 0.85899,-1.91595 1.91601,-1.91595 z m 4.17891,0 c 1.05945,0 1.91715,0.8577 1.91715,1.91595 0,1.05936 -0.8577,1.91601 -1.91715,1.91601 -1.05702,0 -1.91484,-0.85665 -1.91484,-1.91601 0,-1.05825 0.85782,-1.91595 1.91484,-1.91595 z m 4.18125,0 c 1.0581,0 1.9173,0.8577 1.9173,1.91595 0,1.05936 -0.8592,1.91601 -1.9173,1.91601 -1.0581,0 -1.9161,-0.85665 -1.9161,-1.91601 0,-1.05825 0.858,-1.91595 1.9161,-1.91595 z m 4.1802,0 c 1.0581,0 1.9158,0.8577 1.9158,1.91595 0,1.05936 -0.8577,1.91601 -1.9158,1.91601 -1.0584,0 -1.9173,-0.85665 -1.9173,-1.91601 0,-1.05825 0.8589,-1.91595 1.9173,-1.91595 z m 4.1811,0 c 1.0581,0 1.9161,0.8577 1.9161,1.91595 0,1.05936 -0.858,1.91601 -1.9161,1.91601 -1.0581,0 -1.9161,-0.85665 -1.9161,-1.91601 0,-1.05825 0.858,-1.91595 1.9161,-1.91595 z m -12.54255,-4.1814 c 1.05945,0 1.91715,0.8592 1.91715,1.9173 0,1.0581 -0.8577,1.9161 -1.91715,1.9161 -1.05702,0 -1.91484,-0.858 -1.91484,-1.9161 0,-1.0581 0.85782,-1.9173 1.91484,-1.9173 z m 4.18125,0 c 1.0581,0 1.9173,0.8592 1.9173,1.9173 0,1.0581 -0.8592,1.9161 -1.9173,1.9161 -1.0581,0 -1.9161,-0.858 -1.9161,-1.9161 0,-1.0581 0.858,-1.9173 1.9161,-1.9173 z m 4.1802,0 c 1.0581,0 1.9158,0.8592 1.9158,1.9173 0,1.0581 -0.8577,1.9161 -1.9158,1.9161 -1.0584,0 -1.9173,-0.858 -1.9173,-1.9161 0,-1.0581 0.8589,-1.9173 1.9173,-1.9173 z m -4.1802,-4.1799 c 1.0581,0 1.9173,0.8577 1.9173,1.9158 0,1.0584 -0.8592,1.9173 -1.9173,1.9173 -1.0581,0 -1.9161,-0.8589 -1.9161,-1.9173 0,-1.0581 0.858,-1.9158 1.9161,-1.9158 z m 8.3613,16.72137 c 1.0581,0 1.9161,0.85782 1.9161,1.91604 0,1.05819 -0.858,1.91718 -1.9161,1.91718 -1.0581,0 -1.9161,-0.85899 -1.9161,-1.91718 0,-1.05822 0.858,-1.91604 1.9161,-1.91604 z m 0,-4.18008 c 1.0581,0 1.9161,0.85899 1.9161,1.91721 0,1.05819 -0.858,1.91601 -1.9161,1.91601 -1.0581,0 -1.9161,-0.85782 -1.9161,-1.91601 0,-1.05822 0.858,-1.91721 1.9161,-1.91721 z m 4.179,-4.17999 c 1.0581,0 1.9161,0.8577 1.9161,1.91595 0,1.05936 -0.858,1.91601 -1.9161,1.91601 -1.0584,0 -1.9161,-0.85665 -1.9161,-1.91601 0,-1.05825 0.8577,-1.91595 1.9161,-1.91595 z m -4.179,-4.1814 c 1.0581,0 1.9161,0.8592 1.9161,1.9173 0,1.0581 -0.858,1.9161 -1.9161,1.9161 -1.0581,0 -1.9161,-0.858 -1.9161,-1.9161 0,-1.0581 0.858,-1.9173 1.9161,-1.9173 z m -4.1811,-4.1799 c 1.0581,0 1.9158,0.8577 1.9158,1.9158 0,1.0584 -0.8577,1.9173 -1.9158,1.9173 -1.0584,0 -1.9173,-0.8589 -1.9173,-1.9173 0,-1.0581 0.8589,-1.9158 1.9173,-1.9158 z m 8.3601,16.72137 c 1.0581,0 1.9161,0.85782 1.9161,1.91604 0,1.05819 -0.858,1.91718 -1.9161,1.91718 -1.0584,0 -1.9161,-0.85899 -1.9161,-1.91718 0,-1.05822 0.8577,-1.91604 1.9161,-1.91604 z m 0,-4.18008 c 1.0581,0 1.9161,0.85899 1.9161,1.91721 0,1.05819 -0.858,1.91601 -1.9161,1.91601 -1.0584,0 -1.9161,-0.85782 -1.9161,-1.91601 0,-1.05822 0.8577,-1.91721 1.9161,-1.91721 z m 4.1799,-4.17999 c 1.0596,0 1.9173,0.8577 1.9173,1.91595 0,1.05936 -0.8577,1.91601 -1.9173,1.91601 -1.0569,0 -1.9146,-0.85665 -1.9146,-1.91601 0,-1.05825 0.8577,-1.91595 1.9146,-1.91595 z m -4.1799,-4.1814 c 1.0581,0 1.9161,0.8592 1.9161,1.9173 0,1.0581 -0.858,1.9161 -1.9161,1.9161 -1.0584,0 -1.9161,-0.858 -1.9161,-1.9161 0,-1.0581 0.8577,-1.9173 1.9161,-1.9173 z m -4.179,-4.1799 c 1.0581,0 1.9161,0.8577 1.9161,1.9158 0,1.0584 -0.858,1.9173 -1.9161,1.9173 -1.0581,0 -1.9161,-0.8589 -1.9161,-1.9173 0,-1.0581 0.858,-1.9158 1.9161,-1.9158 z m -4.1811,-4.1802 c 1.0581,0 1.9158,0.8577 1.9158,1.9161 0,1.0581 -0.8577,1.9158 -1.9158,1.9158 -1.0584,0 -1.9173,-0.8577 -1.9173,-1.9158 0,-1.0584 0.8589,-1.9161 1.9173,-1.9161 z m -8.36145,20.90157 c 1.05945,0 1.91715,0.85782 1.91715,1.91604 0,1.05819 -0.8577,1.91718 -1.91715,1.91718 -1.05702,0 -1.91484,-0.85899 -1.91484,-1.91718 0,-1.05822 0.85782,-1.91604 1.91484,-1.91604 z m 4.18125,0 c 1.0581,0 1.9173,0.85782 1.9173,1.91604 0,1.05819 -0.8592,1.91718 -1.9173,1.91718 -1.0581,0 -1.9161,-0.85899 -1.9161,-1.91718 0,-1.05822 0.858,-1.91604 1.9161,-1.91604 z m 16.7988,-2.18787 0,4.10391 c 0,2.3496 -1.9077,4.25742 -4.2585,4.25742 -5.5722,0 -11.1468,0 -16.72155,0 -2.3496,0 -4.25508,-1.90782 -4.25508,-4.25742 l 0,-4.10391 c -2.31561,-0.041 -4.18125,-1.93242 -4.18125,-4.25625 0,-1.13445 0.45,-2.21595 1.25157,-3.01515 4.18827,-4.1721 8.35551,-8.3649 12.54021,-12.5403 0.798,-0.7968 1.8786,-1.2423 3.006,-1.2423 1.1307,0 2.2113,0.4467 3.0105,1.2471 4.1823,4.1811 8.3706,8.3565 12.546,12.5448 0.7956,0.7992 1.2411,1.8774 1.2411,3.00585 0,2.32383 -1.8645,4.21521 -4.179,4.25625"
       inkscape:connector-curvature="0"
       sodipodi:nodetypes="sssssssssssssssssssssssssssssssssssssssssssssssssssssssssssssssssssssssssssssssssssssssssssssssssssssssssssssssssssssssssssssssssscsssscsccsccsc"
       inkscape:export-filename="C:\_projects\home.finance.ua\source\HomeFinance\res\drawable-hdpi\icon.png"
       inkscape:export-xdpi="160.39594"
       inkscape:export-ydpi="160.39594" />
    <path
       inkscape:export-ydpi="161.31801"
       inkscape:export-xdpi="161.31801"
       inkscape:export-filename="C:\_projects\home.finance.ua\source\HomeFinance\res\drawable-hdpi\icon.png"
       sodipodi:nodetypes="sssssssssssssssssssssssssssssssssssssssssssssssssssssssssssssssssssssssssssssssssssssssssssssssssssssssssssssssssssssssssssssssssscsssscsccsccsc"
       inkscape:connector-curvature="0"
       d="m 218.79777,694.18872 c 1.0581,0 1.9158,0.85782 1.9158,1.91604 0,1.05819 -0.8577,1.91718 -1.9158,1.91718 -1.0584,0 -1.9173,-0.85899 -1.9173,-1.91718 0,-1.05822 0.8589,-1.91604 1.9173,-1.91604 z m 0,-4.18008 c 1.0581,0 1.9158,0.85898 1.9158,1.9172 0,1.05819 -0.8577,1.91601 -1.9158,1.91601 -1.0584,0 -1.9173,-0.85781 -1.9173,-1.91601 0,-1.05822 0.8589,-1.9172 1.9173,-1.9172 z m -4.1802,0 c 1.0581,0 1.9173,0.85898 1.9173,1.9172 0,1.05819 -0.85919,1.91601 -1.9173,1.91601 -1.0581,0 -1.9161,-0.85781 -1.9161,-1.91601 0,-1.05822 0.858,-1.9172 1.9161,-1.9172 z m -4.18125,0 c 1.05945,0 1.91715,0.85898 1.91715,1.9172 0,1.05819 -0.8577,1.91601 -1.91715,1.91601 -1.05702,0 -1.91484,-0.85781 -1.91484,-1.91601 0,-1.05822 0.85782,-1.9172 1.91484,-1.9172 z m -4.17891,-4.17999 c 1.05822,0 1.91718,0.8577 1.91718,1.91594 0,1.05936 -0.85896,1.91602 -1.91718,1.91602 -1.05702,0 -1.91601,-0.85665 -1.91601,-1.91602 0,-1.05825 0.85899,-1.91594 1.91601,-1.91594 z m 4.17891,0 c 1.05945,0 1.91715,0.8577 1.91715,1.91594 0,1.05936 -0.8577,1.91602 -1.91715,1.91602 -1.05702,0 -1.91484,-0.85665 -1.91484,-1.91602 0,-1.05825 0.85782,-1.91594 1.91484,-1.91594 z m 4.18125,0 c 1.0581,0 1.9173,0.8577 1.9173,1.91594 0,1.05936 -0.85919,1.91602 -1.9173,1.91602 -1.0581,0 -1.9161,-0.85665 -1.9161,-1.91602 0,-1.05825 0.858,-1.91594 1.9161,-1.91594 z m 4.1802,0 c 1.0581,0 1.9158,0.8577 1.9158,1.91594 0,1.05936 -0.8577,1.91602 -1.9158,1.91602 -1.0584,0 -1.9173,-0.85665 -1.9173,-1.91602 0,-1.05825 0.8589,-1.91594 1.9173,-1.91594 z m 4.1811,0 c 1.0581,0 1.9161,0.8577 1.9161,1.91594 0,1.05936 -0.858,1.91602 -1.9161,1.91602 -1.0581,0 -1.9161,-0.85665 -1.9161,-1.91602 0,-1.05825 0.858,-1.91594 1.9161,-1.91594 z m -12.54255,-4.18141 c 1.05945,0 1.91715,0.8592 1.91715,1.9173 0,1.0581 -0.8577,1.9161 -1.91715,1.9161 -1.05702,0 -1.91484,-0.85799 -1.91484,-1.9161 0,-1.0581 0.85782,-1.9173 1.91484,-1.9173 z m 4.18125,0 c 1.0581,0 1.9173,0.8592 1.9173,1.9173 0,1.0581 -0.85919,1.9161 -1.9173,1.9161 -1.0581,0 -1.9161,-0.85799 -1.9161,-1.9161 0,-1.0581 0.858,-1.9173 1.9161,-1.9173 z m 4.1802,0 c 1.0581,0 1.9158,0.8592 1.9158,1.9173 0,1.0581 -0.8577,1.9161 -1.9158,1.9161 -1.0584,0 -1.9173,-0.85799 -1.9173,-1.9161 0,-1.0581 0.8589,-1.9173 1.9173,-1.9173 z m -4.1802,-4.17989 c 1.0581,0 1.9173,0.8577 1.9173,1.9158 0,1.0584 -0.85919,1.91729 -1.9173,1.91729 -1.0581,0 -1.9161,-0.85889 -1.9161,-1.91729 0,-1.0581 0.858,-1.9158 1.9161,-1.9158 z m 8.3613,16.72136 c 1.0581,0 1.9161,0.85782 1.9161,1.91604 0,1.05819 -0.858,1.91718 -1.9161,1.91718 -1.0581,0 -1.9161,-0.85898 -1.9161,-1.91718 0,-1.05822 0.858,-1.91604 1.9161,-1.91604 z m 0,-4.18007 c 1.0581,0 1.9161,0.85898 1.9161,1.9172 0,1.05819 -0.858,1.91601 -1.9161,1.91601 -1.0581,0 -1.9161,-0.85781 -1.9161,-1.91601 0,-1.05822 0.858,-1.9172 1.9161,-1.9172 z m 4.179,-4.17999 c 1.0581,0 1.9161,0.8577 1.9161,1.91594 0,1.05936 -0.858,1.91602 -1.9161,1.91602 -1.0584,0 -1.9161,-0.85665 -1.9161,-1.91602 0,-1.05825 0.8577,-1.91594 1.9161,-1.91594 z m -4.179,-4.18141 c 1.0581,0 1.9161,0.8592 1.9161,1.9173 0,1.0581 -0.858,1.9161 -1.9161,1.9161 -1.0581,0 -1.9161,-0.85799 -1.9161,-1.9161 0,-1.0581 0.858,-1.9173 1.9161,-1.9173 z m -4.1811,-4.17989 c 1.0581,0 1.9158,0.8577 1.9158,1.9158 0,1.0584 -0.8577,1.91729 -1.9158,1.91729 -1.0584,0 -1.9173,-0.85889 -1.9173,-1.91729 0,-1.0581 0.8589,-1.9158 1.9173,-1.9158 z m 8.3601,16.72136 c 1.0581,0 1.9161,0.85782 1.9161,1.91604 0,1.05819 -0.858,1.91718 -1.9161,1.91718 -1.0584,0 -1.9161,-0.85898 -1.9161,-1.91718 0,-1.05822 0.8577,-1.91604 1.9161,-1.91604 z m 0,-4.18007 c 1.0581,0 1.9161,0.85898 1.9161,1.9172 0,1.05819 -0.858,1.91601 -1.9161,1.91601 -1.0584,0 -1.9161,-0.85781 -1.9161,-1.91601 0,-1.05822 0.8577,-1.9172 1.9161,-1.9172 z m 4.1799,-4.17999 c 1.0596,0 1.9173,0.8577 1.9173,1.91594 0,1.05936 -0.85769,1.91602 -1.9173,1.91602 -1.0569,0 -1.9146,-0.85665 -1.9146,-1.91602 0,-1.05825 0.8577,-1.91594 1.9146,-1.91594 z m -4.1799,-4.18141 c 1.0581,0 1.9161,0.8592 1.9161,1.9173 0,1.0581 -0.858,1.9161 -1.9161,1.9161 -1.0584,0 -1.9161,-0.85799 -1.9161,-1.9161 0,-1.0581 0.8577,-1.9173 1.9161,-1.9173 z m -4.179,-4.17989 c 1.0581,0 1.9161,0.8577 1.9161,1.9158 0,1.0584 -0.858,1.91729 -1.9161,1.91729 -1.0581,0 -1.9161,-0.85889 -1.9161,-1.91729 0,-1.0581 0.858,-1.9158 1.9161,-1.9158 z m -4.1811,-4.18021 c 1.0581,0 1.9158,0.85771 1.9158,1.91611 0,1.05809 -0.8577,1.9158 -1.9158,1.9158 -1.0584,0 -1.9173,-0.85771 -1.9173,-1.9158 0,-1.0584 0.8589,-1.91611 1.9173,-1.91611 z m -8.36144,20.90157 c 1.05945,0 1.91714,0.85782 1.91714,1.91604 0,1.05819 -0.85769,1.91718 -1.91714,1.91718 -1.05702,0 -1.91484,-0.85898 -1.91484,-1.91718 0,-1.05822 0.85782,-1.91604 1.91484,-1.91604 z m 4.18125,0 c 1.0581,0 1.9173,0.85782 1.9173,1.91604 0,1.05819 -0.8592,1.91718 -1.9173,1.91718 -1.0581,0 -1.9161,-0.85898 -1.9161,-1.91718 0,-1.05822 0.858,-1.91604 1.9161,-1.91604 z m 16.7988,-2.18786 0,4.10391 c 0,2.3496 -1.9077,4.25742 -4.2585,4.25742 -5.5722,0 -11.14681,0 -16.72155,0 -2.34961,0 -4.25508,-1.90782 -4.25508,-4.25742 l 0,-4.10391 C 203.86564,691.95985 202,690.06843 202,687.74459 c 0,-1.13445 0.44999,-2.21595 1.25156,-3.01514 4.18827,-4.1721 8.35552,-8.3649 12.54021,-12.5403 0.798,-0.7968 1.8786,-1.2423 3.006,-1.2423 1.1307,0 2.2113,0.4467 3.01051,1.2471 4.18229,4.1811 8.37059,8.3565 12.54599,12.5448 0.7956,0.7992 1.24111,1.8774 1.24111,3.00585 0,2.32383 -1.86451,4.21521 -4.17901,4.25625"
       style="fill:#008000;fill-opacity:1;fill-rule:evenodd;stroke:url(#linearGradient3864);stroke-width:4;stroke-miterlimit:4;stroke-dasharray:none"
       id="path3072" />
    <path
       id="path2999-9"
       style="fill:#ffffff;fill-opacity:1;fill-rule:evenodd;stroke:none"
       d="m 218.79779,694.18872 c 1.05809,0 1.9158,0.85782 1.9158,1.91604 0,1.05819 -0.85771,1.91718 -1.9158,1.91718 -1.0584,0 -1.9173,-0.85899 -1.9173,-1.91718 0,-1.05822 0.8589,-1.91604 1.9173,-1.91604 z m 0,-4.18008 c 1.05809,0 1.9158,0.85898 1.9158,1.9172 0,1.05819 -0.85771,1.91601 -1.9158,1.91601 -1.0584,0 -1.9173,-0.85781 -1.9173,-1.91601 0,-1.05822 0.8589,-1.9172 1.9173,-1.9172 z m -4.1802,0 c 1.05809,0 1.9173,0.85898 1.9173,1.9172 0,1.05819 -0.8592,1.91601 -1.9173,1.91601 -1.05811,0 -1.91611,-0.85781 -1.91611,-1.91601 0,-1.05822 0.858,-1.9172 1.91611,-1.9172 z m -4.18126,0 c 1.05946,0 1.91715,0.85898 1.91715,1.9172 0,1.05819 -0.85769,1.91601 -1.91715,1.91601 -1.05701,0 -1.91483,-0.85781 -1.91483,-1.91601 0,-1.05822 0.85782,-1.9172 1.91483,-1.9172 z m -4.1789,-4.17999 c 1.05822,0 1.91717,0.8577 1.91717,1.91594 0,1.05936 -0.85895,1.91602 -1.91717,1.91602 -1.05703,0 -1.91602,-0.85665 -1.91602,-1.91602 0,-1.05825 0.85899,-1.91594 1.91602,-1.91594 z m 4.1789,0 c 1.05946,0 1.91715,0.8577 1.91715,1.91594 0,1.05936 -0.85769,1.91602 -1.91715,1.91602 -1.05701,0 -1.91483,-0.85665 -1.91483,-1.91602 0,-1.05825 0.85782,-1.91594 1.91483,-1.91594 z m 4.18126,0 c 1.05809,0 1.9173,0.8577 1.9173,1.91594 0,1.05936 -0.8592,1.91602 -1.9173,1.91602 -1.05811,0 -1.91611,-0.85665 -1.91611,-1.91602 0,-1.05825 0.858,-1.91594 1.91611,-1.91594 z m 4.1802,0 c 1.05809,0 1.9158,0.8577 1.9158,1.91594 0,1.05936 -0.85771,1.91602 -1.9158,1.91602 -1.0584,0 -1.9173,-0.85665 -1.9173,-1.91602 0,-1.05825 0.8589,-1.91594 1.9173,-1.91594 z m 4.18109,0 c 1.05811,0 1.91611,0.8577 1.91611,1.91594 0,1.05936 -0.858,1.91602 -1.91611,1.91602 -1.05809,0 -1.91609,-0.85665 -1.91609,-1.91602 0,-1.05825 0.858,-1.91594 1.91609,-1.91594 z m -12.54255,-4.18141 c 1.05946,0 1.91715,0.8592 1.91715,1.9173 0,1.0581 -0.85769,1.9161 -1.91715,1.9161 -1.05701,0 -1.91483,-0.85799 -1.91483,-1.9161 0,-1.0581 0.85782,-1.9173 1.91483,-1.9173 z m 4.18126,0 c 1.05809,0 1.9173,0.8592 1.9173,1.9173 0,1.0581 -0.8592,1.9161 -1.9173,1.9161 -1.05811,0 -1.91611,-0.85799 -1.91611,-1.9161 0,-1.0581 0.858,-1.9173 1.91611,-1.9173 z m 4.1802,0 c 1.05809,0 1.9158,0.8592 1.9158,1.9173 0,1.0581 -0.85771,1.9161 -1.9158,1.9161 -1.0584,0 -1.9173,-0.85799 -1.9173,-1.9161 0,-1.0581 0.8589,-1.9173 1.9173,-1.9173 z m -4.1802,-4.17989 c 1.05809,0 1.9173,0.8577 1.9173,1.9158 0,1.0584 -0.8592,1.91729 -1.9173,1.91729 -1.05811,0 -1.91611,-0.85889 -1.91611,-1.91729 0,-1.0581 0.858,-1.9158 1.91611,-1.9158 z m 8.36129,16.72136 c 1.05811,0 1.91611,0.85782 1.91611,1.91604 0,1.05819 -0.858,1.91718 -1.91611,1.91718 -1.05809,0 -1.91609,-0.85898 -1.91609,-1.91718 0,-1.05822 0.858,-1.91604 1.91609,-1.91604 z m 0,-4.18007 c 1.05811,0 1.91611,0.85898 1.91611,1.9172 0,1.05819 -0.858,1.91601 -1.91611,1.91601 -1.05809,0 -1.91609,-0.85781 -1.91609,-1.91601 0,-1.05822 0.858,-1.9172 1.91609,-1.9172 z m 4.17901,-4.17999 c 1.0581,0 1.91609,0.8577 1.91609,1.91594 0,1.05936 -0.858,1.91602 -1.91609,1.91602 -1.0584,0 -1.9161,-0.85665 -1.9161,-1.91602 0,-1.05825 0.8577,-1.91594 1.9161,-1.91594 z m -4.17901,-4.18141 c 1.05811,0 1.91611,0.8592 1.91611,1.9173 0,1.0581 -0.858,1.9161 -1.91611,1.9161 -1.05809,0 -1.91609,-0.85799 -1.91609,-1.9161 0,-1.0581 0.858,-1.9173 1.91609,-1.9173 z m -4.18109,-4.17989 c 1.05809,0 1.9158,0.8577 1.9158,1.9158 0,1.0584 -0.85771,1.91729 -1.9158,1.91729 -1.0584,0 -1.9173,-0.85889 -1.9173,-1.91729 0,-1.0581 0.8589,-1.9158 1.9173,-1.9158 z m 8.3601,16.72136 c 1.0581,0 1.91609,0.85782 1.91609,1.91604 0,1.05819 -0.858,1.91718 -1.91609,1.91718 -1.0584,0 -1.9161,-0.85898 -1.9161,-1.91718 0,-1.05822 0.8577,-1.91604 1.9161,-1.91604 z m 0,-4.18007 c 1.0581,0 1.91609,0.85898 1.91609,1.9172 0,1.05819 -0.858,1.91601 -1.91609,1.91601 -1.0584,0 -1.9161,-0.85781 -1.9161,-1.91601 0,-1.05822 0.8577,-1.9172 1.9161,-1.9172 z m 4.17989,-4.17999 c 1.0596,0 1.9173,0.8577 1.9173,1.91594 0,1.05936 -0.8577,1.91602 -1.9173,1.91602 -1.05689,0 -1.9146,-0.85665 -1.9146,-1.91602 0,-1.05825 0.85771,-1.91594 1.9146,-1.91594 z m -4.17989,-4.18141 c 1.0581,0 1.91609,0.8592 1.91609,1.9173 0,1.0581 -0.858,1.9161 -1.91609,1.9161 -1.0584,0 -1.9161,-0.85799 -1.9161,-1.9161 0,-1.0581 0.8577,-1.9173 1.9161,-1.9173 z m -4.17901,-4.17989 c 1.05811,0 1.91611,0.8577 1.91611,1.9158 0,1.0584 -0.858,1.91729 -1.91611,1.91729 -1.05809,0 -1.91609,-0.85889 -1.91609,-1.91729 0,-1.0581 0.858,-1.9158 1.91609,-1.9158 z m -4.18109,-4.18021 c 1.05809,0 1.9158,0.85771 1.9158,1.91611 0,1.05809 -0.85771,1.9158 -1.9158,1.9158 -1.0584,0 -1.9173,-0.85771 -1.9173,-1.9158 0,-1.0584 0.8589,-1.91611 1.9173,-1.91611 z m -8.36145,20.90157 c 1.05945,0 1.91715,0.85782 1.91715,1.91604 0,1.05819 -0.8577,1.91718 -1.91715,1.91718 -1.05702,0 -1.91484,-0.85898 -1.91484,-1.91718 0,-1.05822 0.85782,-1.91604 1.91484,-1.91604 z m 4.18125,0 c 1.0581,0 1.9173,0.85782 1.9173,1.91604 0,1.05819 -0.8592,1.91718 -1.9173,1.91718 -1.0581,0 -1.9161,-0.85898 -1.9161,-1.91718 0,-1.05822 0.858,-1.91604 1.9161,-1.91604 z m 16.7988,-2.18786 0,4.10391 c 0,2.3496 -1.9077,4.25742 -4.2585,4.25742 -5.5722,0 -11.14681,0 -16.72156,0 -2.3496,0 -4.25507,-1.90782 -4.25507,-4.25742 l 0,-4.10391 C 203.86565,691.95985 202,690.06843 202,687.74459 c 0,-1.13445 0.45,-2.21595 1.25157,-3.01514 4.18827,-4.1721 8.35551,-8.3649 12.54021,-12.5403 0.798,-0.7968 1.8786,-1.2423 3.006,-1.2423 1.1307,0 2.2113,0.4467 3.01051,1.2471 4.18229,4.1811 8.3706,8.3565 12.54599,12.5448 0.7956,0.7992 1.24111,1.8774 1.24111,3.00585 0,2.32383 -1.86451,4.21521 -4.179,4.25625"
       inkscape:connector-curvature="0"
       sodipodi:nodetypes="sssssssssssssssssssssssssssssssssssssssssssssssssssssssssssssssssssssssssssssssssssssssssssssssssssssssssssssssssssssssssssssssssscsssscsccsccsc"
       inkscape:export-filename="C:\_projects\home.finance.ua\source\HomeFinance\res\drawable-hdpi\icon.png"
       inkscape:export-xdpi="161.31801"
       inkscape:export-ydpi="161.31801" />
    <g
       id="g3909">
      <path
         id="path3907"
         style="fill:#ffffff;fill-opacity:1;fill-rule:evenodd;stroke:#ffffff;stroke-width:8;stroke-miterlimit:4;stroke-dasharray:none"
         d="m 270.25079,703.60751 c 1.05809,0 1.9158,0.85782 1.9158,1.91604 0,1.05819 -0.85771,1.91718 -1.9158,1.91718 -1.0584,0 -1.9173,-0.85899 -1.9173,-1.91718 0,-1.05822 0.8589,-1.91604 1.9173,-1.91604 z m 0,-4.18008 c 1.05809,0 1.9158,0.85898 1.9158,1.9172 0,1.05819 -0.85771,1.91601 -1.9158,1.91601 -1.0584,0 -1.9173,-0.85781 -1.9173,-1.91601 0,-1.05822 0.8589,-1.9172 1.9173,-1.9172 z m -4.1802,0 c 1.05809,0 1.9173,0.85898 1.9173,1.9172 0,1.05819 -0.8592,1.91601 -1.9173,1.91601 -1.05811,0 -1.91611,-0.85781 -1.91611,-1.91601 0,-1.05822 0.858,-1.9172 1.91611,-1.9172 z m -4.18126,0 c 1.05946,0 1.91715,0.85898 1.91715,1.9172 0,1.05819 -0.85769,1.91601 -1.91715,1.91601 -1.05701,0 -1.91483,-0.85781 -1.91483,-1.91601 0,-1.05822 0.85782,-1.9172 1.91483,-1.9172 z m -4.1789,-4.17999 c 1.05822,0 1.91717,0.8577 1.91717,1.91594 0,1.05936 -0.85895,1.91602 -1.91717,1.91602 -1.05703,0 -1.91602,-0.85665 -1.91602,-1.91602 0,-1.05825 0.85899,-1.91594 1.91602,-1.91594 z m 4.1789,0 c 1.05946,0 1.91715,0.8577 1.91715,1.91594 0,1.05936 -0.85769,1.91602 -1.91715,1.91602 -1.05701,0 -1.91483,-0.85665 -1.91483,-1.91602 0,-1.05825 0.85782,-1.91594 1.91483,-1.91594 z m 4.18126,0 c 1.05809,0 1.9173,0.8577 1.9173,1.91594 0,1.05936 -0.8592,1.91602 -1.9173,1.91602 -1.05811,0 -1.91611,-0.85665 -1.91611,-1.91602 0,-1.05825 0.858,-1.91594 1.91611,-1.91594 z m 4.1802,0 c 1.05809,0 1.9158,0.8577 1.9158,1.91594 0,1.05936 -0.85771,1.91602 -1.9158,1.91602 -1.0584,0 -1.9173,-0.85665 -1.9173,-1.91602 0,-1.05825 0.8589,-1.91594 1.9173,-1.91594 z m 4.18109,0 c 1.05811,0 1.91611,0.8577 1.91611,1.91594 0,1.05936 -0.858,1.91602 -1.91611,1.91602 -1.05809,0 -1.91609,-0.85665 -1.91609,-1.91602 0,-1.05825 0.858,-1.91594 1.91609,-1.91594 z m -12.54255,-4.18141 c 1.05946,0 1.91715,0.8592 1.91715,1.9173 0,1.0581 -0.85769,1.9161 -1.91715,1.9161 -1.05701,0 -1.91483,-0.85799 -1.91483,-1.9161 0,-1.0581 0.85782,-1.9173 1.91483,-1.9173 z m 4.18126,0 c 1.05809,0 1.9173,0.8592 1.9173,1.9173 0,1.0581 -0.8592,1.9161 -1.9173,1.9161 -1.05811,0 -1.91611,-0.85799 -1.91611,-1.9161 0,-1.0581 0.858,-1.9173 1.91611,-1.9173 z m 4.1802,0 c 1.05809,0 1.9158,0.8592 1.9158,1.9173 0,1.0581 -0.85771,1.9161 -1.9158,1.9161 -1.0584,0 -1.9173,-0.85799 -1.9173,-1.9161 0,-1.0581 0.8589,-1.9173 1.9173,-1.9173 z m -4.1802,-4.17989 c 1.05809,0 1.9173,0.8577 1.9173,1.9158 0,1.0584 -0.8592,1.91729 -1.9173,1.91729 -1.05811,0 -1.91611,-0.85889 -1.91611,-1.91729 0,-1.0581 0.858,-1.9158 1.91611,-1.9158 z m 8.36129,16.72136 c 1.05811,0 1.91611,0.85782 1.91611,1.91604 0,1.05819 -0.858,1.91718 -1.91611,1.91718 -1.05809,0 -1.91609,-0.85898 -1.91609,-1.91718 0,-1.05822 0.858,-1.91604 1.91609,-1.91604 z m 0,-4.18007 c 1.05811,0 1.91611,0.85898 1.91611,1.9172 0,1.05819 -0.858,1.91601 -1.91611,1.91601 -1.05809,0 -1.91609,-0.85781 -1.91609,-1.91601 0,-1.05822 0.858,-1.9172 1.91609,-1.9172 z m 4.17901,-4.17999 c 1.0581,0 1.91609,0.8577 1.91609,1.91594 0,1.05936 -0.858,1.91602 -1.91609,1.91602 -1.0584,0 -1.9161,-0.85665 -1.9161,-1.91602 0,-1.05825 0.8577,-1.91594 1.9161,-1.91594 z m -4.17901,-4.18141 c 1.05811,0 1.91611,0.8592 1.91611,1.9173 0,1.0581 -0.858,1.9161 -1.91611,1.9161 -1.05809,0 -1.91609,-0.85799 -1.91609,-1.9161 0,-1.0581 0.858,-1.9173 1.91609,-1.9173 z m -4.18109,-4.17989 c 1.05809,0 1.9158,0.8577 1.9158,1.9158 0,1.0584 -0.85771,1.91729 -1.9158,1.91729 -1.0584,0 -1.9173,-0.85889 -1.9173,-1.91729 0,-1.0581 0.8589,-1.9158 1.9173,-1.9158 z m 8.3601,16.72136 c 1.0581,0 1.91609,0.85782 1.91609,1.91604 0,1.05819 -0.858,1.91718 -1.91609,1.91718 -1.0584,0 -1.9161,-0.85898 -1.9161,-1.91718 0,-1.05822 0.8577,-1.91604 1.9161,-1.91604 z m 0,-4.18007 c 1.0581,0 1.91609,0.85898 1.91609,1.9172 0,1.05819 -0.858,1.91601 -1.91609,1.91601 -1.0584,0 -1.9161,-0.85781 -1.9161,-1.91601 0,-1.05822 0.8577,-1.9172 1.9161,-1.9172 z m 4.17989,-4.17999 c 1.0596,0 1.9173,0.8577 1.9173,1.91594 0,1.05936 -0.8577,1.91602 -1.9173,1.91602 -1.05689,0 -1.9146,-0.85665 -1.9146,-1.91602 0,-1.05825 0.85771,-1.91594 1.9146,-1.91594 z m -4.17989,-4.18141 c 1.0581,0 1.91609,0.8592 1.91609,1.9173 0,1.0581 -0.858,1.9161 -1.91609,1.9161 -1.0584,0 -1.9161,-0.85799 -1.9161,-1.9161 0,-1.0581 0.8577,-1.9173 1.9161,-1.9173 z m -4.17901,-4.17989 c 1.05811,0 1.91611,0.8577 1.91611,1.9158 0,1.0584 -0.858,1.91729 -1.91611,1.91729 -1.05809,0 -1.91609,-0.85889 -1.91609,-1.91729 0,-1.0581 0.858,-1.9158 1.91609,-1.9158 z m -4.18109,-4.18021 c 1.05809,0 1.9158,0.85771 1.9158,1.91611 0,1.05809 -0.85771,1.9158 -1.9158,1.9158 -1.0584,0 -1.9173,-0.85771 -1.9173,-1.9158 0,-1.0584 0.8589,-1.91611 1.9173,-1.91611 z m -8.36145,20.90157 c 1.05945,0 1.91715,0.85782 1.91715,1.91604 0,1.05819 -0.8577,1.91718 -1.91715,1.91718 -1.05702,0 -1.91484,-0.85898 -1.91484,-1.91718 0,-1.05822 0.85782,-1.91604 1.91484,-1.91604 z m 4.18125,0 c 1.0581,0 1.9173,0.85782 1.9173,1.91604 0,1.05819 -0.8592,1.91718 -1.9173,1.91718 -1.0581,0 -1.9161,-0.85898 -1.9161,-1.91718 0,-1.05822 0.858,-1.91604 1.9161,-1.91604 z m 16.7988,-2.18786 0,4.10391 c 0,2.3496 -1.9077,4.25742 -4.2585,4.25742 -5.5722,0 -11.14681,0 -16.72156,0 -2.3496,0 -4.25507,-1.90782 -4.25507,-4.25742 l 0,-4.10391 c -2.31561,-0.041 -4.18126,-1.93242 -4.18126,-4.25626 0,-1.13445 0.45,-2.21595 1.25157,-3.01514 4.18827,-4.1721 8.35551,-8.3649 12.54021,-12.5403 0.798,-0.7968 1.8786,-1.2423 3.006,-1.2423 1.1307,0 2.2113,0.4467 3.01051,1.2471 4.18229,4.1811 8.3706,8.3565 12.54599,12.5448 0.7956,0.7992 1.24111,1.8774 1.24111,3.00585 0,2.32383 -1.86451,4.21521 -4.179,4.25625"
         inkscape:connector-curvature="0"
         sodipodi:nodetypes="sssssssssssssssssssssssssssssssssssssssssssssssssssssssssssssssssssssssssssssssssssssssssssssssssssssssssssssssssssssssssssssssssscsssscsccsccsc"
         inkscape:export-filename="C:\_projects\home.finance.ua\source\HomeFinance\res\drawable-ldpi\icon.png"
         inkscape:export-xdpi="73.161255"
         inkscape:export-ydpi="73.161255" />
      <path
         id="path3072-5-3"
         style="fill:#000000;fill-opacity:1;fill-rule:evenodd;stroke:#000000;stroke-width:4;stroke-miterlimit:4;stroke-dasharray:none;filter:url(#filter3921-6)"
         d="m 270.75095,704.10751 c 1.0581,0 1.9158,0.85782 1.9158,1.91604 0,1.05819 -0.8577,1.91718 -1.9158,1.91718 -1.0584,0 -1.9173,-0.85899 -1.9173,-1.91718 0,-1.05822 0.8589,-1.91604 1.9173,-1.91604 z m 0,-4.18008 c 1.0581,0 1.9158,0.85898 1.9158,1.9172 0,1.05819 -0.8577,1.91601 -1.9158,1.91601 -1.0584,0 -1.9173,-0.85781 -1.9173,-1.91601 0,-1.05822 0.8589,-1.9172 1.9173,-1.9172 z m -4.1802,0 c 1.0581,0 1.9173,0.85898 1.9173,1.9172 0,1.05819 -0.85919,1.91601 -1.9173,1.91601 -1.0581,0 -1.9161,-0.85781 -1.9161,-1.91601 0,-1.05822 0.858,-1.9172 1.9161,-1.9172 z m -4.18125,0 c 1.05945,0 1.91715,0.85898 1.91715,1.9172 0,1.05819 -0.8577,1.91601 -1.91715,1.91601 -1.05702,0 -1.91484,-0.85781 -1.91484,-1.91601 0,-1.05822 0.85782,-1.9172 1.91484,-1.9172 z m -4.17891,-4.17999 c 1.05822,0 1.91718,0.8577 1.91718,1.91594 0,1.05936 -0.85896,1.91602 -1.91718,1.91602 -1.05702,0 -1.91601,-0.85665 -1.91601,-1.91602 0,-1.05825 0.85899,-1.91594 1.91601,-1.91594 z m 4.17891,0 c 1.05945,0 1.91715,0.8577 1.91715,1.91594 0,1.05936 -0.8577,1.91602 -1.91715,1.91602 -1.05702,0 -1.91484,-0.85665 -1.91484,-1.91602 0,-1.05825 0.85782,-1.91594 1.91484,-1.91594 z m 4.18125,0 c 1.0581,0 1.9173,0.8577 1.9173,1.91594 0,1.05936 -0.85919,1.91602 -1.9173,1.91602 -1.0581,0 -1.9161,-0.85665 -1.9161,-1.91602 0,-1.05825 0.858,-1.91594 1.9161,-1.91594 z m 4.1802,0 c 1.0581,0 1.9158,0.8577 1.9158,1.91594 0,1.05936 -0.8577,1.91602 -1.9158,1.91602 -1.0584,0 -1.9173,-0.85665 -1.9173,-1.91602 0,-1.05825 0.8589,-1.91594 1.9173,-1.91594 z m 4.1811,0 c 1.0581,0 1.9161,0.8577 1.9161,1.91594 0,1.05936 -0.858,1.91602 -1.9161,1.91602 -1.0581,0 -1.9161,-0.85665 -1.9161,-1.91602 0,-1.05825 0.858,-1.91594 1.9161,-1.91594 z m -12.54255,-4.18141 c 1.05945,0 1.91715,0.8592 1.91715,1.9173 0,1.0581 -0.8577,1.9161 -1.91715,1.9161 -1.05702,0 -1.91484,-0.85799 -1.91484,-1.9161 0,-1.0581 0.85782,-1.9173 1.91484,-1.9173 z m 4.18125,0 c 1.0581,0 1.9173,0.8592 1.9173,1.9173 0,1.0581 -0.85919,1.9161 -1.9173,1.9161 -1.0581,0 -1.9161,-0.85799 -1.9161,-1.9161 0,-1.0581 0.858,-1.9173 1.9161,-1.9173 z m 4.1802,0 c 1.0581,0 1.9158,0.8592 1.9158,1.9173 0,1.0581 -0.8577,1.9161 -1.9158,1.9161 -1.0584,0 -1.9173,-0.85799 -1.9173,-1.9161 0,-1.0581 0.8589,-1.9173 1.9173,-1.9173 z m -4.1802,-4.17989 c 1.0581,0 1.9173,0.8577 1.9173,1.9158 0,1.0584 -0.85919,1.91729 -1.9173,1.91729 -1.0581,0 -1.9161,-0.85889 -1.9161,-1.91729 0,-1.0581 0.858,-1.9158 1.9161,-1.9158 z m 8.3613,16.72136 c 1.0581,0 1.9161,0.85782 1.9161,1.91604 0,1.05819 -0.858,1.91718 -1.9161,1.91718 -1.0581,0 -1.9161,-0.85898 -1.9161,-1.91718 0,-1.05822 0.858,-1.91604 1.9161,-1.91604 z m 0,-4.18007 c 1.0581,0 1.9161,0.85898 1.9161,1.9172 0,1.05819 -0.858,1.91601 -1.9161,1.91601 -1.0581,0 -1.9161,-0.85781 -1.9161,-1.91601 0,-1.05822 0.858,-1.9172 1.9161,-1.9172 z m 4.179,-4.17999 c 1.0581,0 1.9161,0.8577 1.9161,1.91594 0,1.05936 -0.858,1.91602 -1.9161,1.91602 -1.0584,0 -1.9161,-0.85665 -1.9161,-1.91602 0,-1.05825 0.8577,-1.91594 1.9161,-1.91594 z m -4.179,-4.18141 c 1.0581,0 1.9161,0.8592 1.9161,1.9173 0,1.0581 -0.858,1.9161 -1.9161,1.9161 -1.0581,0 -1.9161,-0.85799 -1.9161,-1.9161 0,-1.0581 0.858,-1.9173 1.9161,-1.9173 z m -4.1811,-4.17989 c 1.0581,0 1.9158,0.8577 1.9158,1.9158 0,1.0584 -0.8577,1.91729 -1.9158,1.91729 -1.0584,0 -1.9173,-0.85889 -1.9173,-1.91729 0,-1.0581 0.8589,-1.9158 1.9173,-1.9158 z m 8.3601,16.72136 c 1.0581,0 1.9161,0.85782 1.9161,1.91604 0,1.05819 -0.858,1.91718 -1.9161,1.91718 -1.0584,0 -1.9161,-0.85898 -1.9161,-1.91718 0,-1.05822 0.8577,-1.91604 1.9161,-1.91604 z m 0,-4.18007 c 1.0581,0 1.9161,0.85898 1.9161,1.9172 0,1.05819 -0.858,1.91601 -1.9161,1.91601 -1.0584,0 -1.9161,-0.85781 -1.9161,-1.91601 0,-1.05822 0.8577,-1.9172 1.9161,-1.9172 z m 4.1799,-4.17999 c 1.0596,0 1.9173,0.8577 1.9173,1.91594 0,1.05936 -0.85769,1.91602 -1.9173,1.91602 -1.0569,0 -1.9146,-0.85665 -1.9146,-1.91602 0,-1.05825 0.8577,-1.91594 1.9146,-1.91594 z m -4.1799,-4.18141 c 1.0581,0 1.9161,0.8592 1.9161,1.9173 0,1.0581 -0.858,1.9161 -1.9161,1.9161 -1.0584,0 -1.9161,-0.85799 -1.9161,-1.9161 0,-1.0581 0.8577,-1.9173 1.9161,-1.9173 z m -4.179,-4.17989 c 1.0581,0 1.9161,0.8577 1.9161,1.9158 0,1.0584 -0.858,1.91729 -1.9161,1.91729 -1.0581,0 -1.9161,-0.85889 -1.9161,-1.91729 0,-1.0581 0.858,-1.9158 1.9161,-1.9158 z m -4.1811,-4.18021 c 1.0581,0 1.9158,0.85771 1.9158,1.91611 0,1.05809 -0.8577,1.9158 -1.9158,1.9158 -1.0584,0 -1.9173,-0.85771 -1.9173,-1.9158 0,-1.0584 0.8589,-1.91611 1.9173,-1.91611 z m -8.36144,20.90157 c 1.05945,0 1.91714,0.85782 1.91714,1.91604 0,1.05819 -0.85769,1.91718 -1.91714,1.91718 -1.05702,0 -1.91484,-0.85898 -1.91484,-1.91718 0,-1.05822 0.85782,-1.91604 1.91484,-1.91604 z m 4.18125,0 c 1.0581,0 1.9173,0.85782 1.9173,1.91604 0,1.05819 -0.8592,1.91718 -1.9173,1.91718 -1.0581,0 -1.9161,-0.85898 -1.9161,-1.91718 0,-1.05822 0.858,-1.91604 1.9161,-1.91604 z m 16.7988,-2.18786 0,4.10391 c 0,2.3496 -1.9077,4.25742 -4.2585,4.25742 -5.5722,0 -11.14681,0 -16.72155,0 -2.34961,0 -4.25508,-1.90782 -4.25508,-4.25742 l 0,-4.10391 c -2.31561,-0.041 -4.18125,-1.93242 -4.18125,-4.25626 0,-1.13445 0.44999,-2.21595 1.25156,-3.01514 4.18827,-4.1721 8.35552,-8.3649 12.54021,-12.5403 0.798,-0.7968 1.8786,-1.2423 3.006,-1.2423 1.1307,0 2.2113,0.4467 3.01051,1.2471 4.18229,4.1811 8.37059,8.3565 12.54599,12.5448 0.7956,0.7992 1.24111,1.8774 1.24111,3.00585 0,2.32383 -1.86451,4.21521 -4.17901,4.25625"
         inkscape:connector-curvature="0"
         sodipodi:nodetypes="sssssssssssssssssssssssssssssssssssssssssssssssssssssssssssssssssssssssssssssssssssssssssssssssssssssssssssssssssssssssssssssssssscsssscsccsccsc"
         inkscape:export-filename="C:\_projects\home.finance.ua\source\HomeFinance\res\drawable-ldpi\icon.png"
         inkscape:export-xdpi="73.161255"
         inkscape:export-ydpi="73.161255" />
      <path
         id="path3072-8"
         style="fill:#008000;fill-opacity:1;fill-rule:evenodd;stroke:url(#linearGradient3864-2);stroke-width:4;stroke-miterlimit:4;stroke-dasharray:none"
         d="m 270.25095,703.60751 c 1.0581,0 1.9158,0.85782 1.9158,1.91604 0,1.05819 -0.8577,1.91718 -1.9158,1.91718 -1.0584,0 -1.9173,-0.85899 -1.9173,-1.91718 0,-1.05822 0.8589,-1.91604 1.9173,-1.91604 z m 0,-4.18008 c 1.0581,0 1.9158,0.85898 1.9158,1.9172 0,1.05819 -0.8577,1.91601 -1.9158,1.91601 -1.0584,0 -1.9173,-0.85781 -1.9173,-1.91601 0,-1.05822 0.8589,-1.9172 1.9173,-1.9172 z m -4.1802,0 c 1.0581,0 1.9173,0.85898 1.9173,1.9172 0,1.05819 -0.85919,1.91601 -1.9173,1.91601 -1.0581,0 -1.9161,-0.85781 -1.9161,-1.91601 0,-1.05822 0.858,-1.9172 1.9161,-1.9172 z m -4.18125,0 c 1.05945,0 1.91715,0.85898 1.91715,1.9172 0,1.05819 -0.8577,1.91601 -1.91715,1.91601 -1.05702,0 -1.91484,-0.85781 -1.91484,-1.91601 0,-1.05822 0.85782,-1.9172 1.91484,-1.9172 z m -4.17891,-4.17999 c 1.05822,0 1.91718,0.8577 1.91718,1.91594 0,1.05936 -0.85896,1.91602 -1.91718,1.91602 -1.05702,0 -1.91601,-0.85665 -1.91601,-1.91602 0,-1.05825 0.85899,-1.91594 1.91601,-1.91594 z m 4.17891,0 c 1.05945,0 1.91715,0.8577 1.91715,1.91594 0,1.05936 -0.8577,1.91602 -1.91715,1.91602 -1.05702,0 -1.91484,-0.85665 -1.91484,-1.91602 0,-1.05825 0.85782,-1.91594 1.91484,-1.91594 z m 4.18125,0 c 1.0581,0 1.9173,0.8577 1.9173,1.91594 0,1.05936 -0.85919,1.91602 -1.9173,1.91602 -1.0581,0 -1.9161,-0.85665 -1.9161,-1.91602 0,-1.05825 0.858,-1.91594 1.9161,-1.91594 z m 4.1802,0 c 1.0581,0 1.9158,0.8577 1.9158,1.91594 0,1.05936 -0.8577,1.91602 -1.9158,1.91602 -1.0584,0 -1.9173,-0.85665 -1.9173,-1.91602 0,-1.05825 0.8589,-1.91594 1.9173,-1.91594 z m 4.1811,0 c 1.0581,0 1.9161,0.8577 1.9161,1.91594 0,1.05936 -0.858,1.91602 -1.9161,1.91602 -1.0581,0 -1.9161,-0.85665 -1.9161,-1.91602 0,-1.05825 0.858,-1.91594 1.9161,-1.91594 z m -12.54255,-4.18141 c 1.05945,0 1.91715,0.8592 1.91715,1.9173 0,1.0581 -0.8577,1.9161 -1.91715,1.9161 -1.05702,0 -1.91484,-0.85799 -1.91484,-1.9161 0,-1.0581 0.85782,-1.9173 1.91484,-1.9173 z m 4.18125,0 c 1.0581,0 1.9173,0.8592 1.9173,1.9173 0,1.0581 -0.85919,1.9161 -1.9173,1.9161 -1.0581,0 -1.9161,-0.85799 -1.9161,-1.9161 0,-1.0581 0.858,-1.9173 1.9161,-1.9173 z m 4.1802,0 c 1.0581,0 1.9158,0.8592 1.9158,1.9173 0,1.0581 -0.8577,1.9161 -1.9158,1.9161 -1.0584,0 -1.9173,-0.85799 -1.9173,-1.9161 0,-1.0581 0.8589,-1.9173 1.9173,-1.9173 z m -4.1802,-4.17989 c 1.0581,0 1.9173,0.8577 1.9173,1.9158 0,1.0584 -0.85919,1.91729 -1.9173,1.91729 -1.0581,0 -1.9161,-0.85889 -1.9161,-1.91729 0,-1.0581 0.858,-1.9158 1.9161,-1.9158 z m 8.3613,16.72136 c 1.0581,0 1.9161,0.85782 1.9161,1.91604 0,1.05819 -0.858,1.91718 -1.9161,1.91718 -1.0581,0 -1.9161,-0.85898 -1.9161,-1.91718 0,-1.05822 0.858,-1.91604 1.9161,-1.91604 z m 0,-4.18007 c 1.0581,0 1.9161,0.85898 1.9161,1.9172 0,1.05819 -0.858,1.91601 -1.9161,1.91601 -1.0581,0 -1.9161,-0.85781 -1.9161,-1.91601 0,-1.05822 0.858,-1.9172 1.9161,-1.9172 z m 4.179,-4.17999 c 1.0581,0 1.9161,0.8577 1.9161,1.91594 0,1.05936 -0.858,1.91602 -1.9161,1.91602 -1.0584,0 -1.9161,-0.85665 -1.9161,-1.91602 0,-1.05825 0.8577,-1.91594 1.9161,-1.91594 z m -4.179,-4.18141 c 1.0581,0 1.9161,0.8592 1.9161,1.9173 0,1.0581 -0.858,1.9161 -1.9161,1.9161 -1.0581,0 -1.9161,-0.85799 -1.9161,-1.9161 0,-1.0581 0.858,-1.9173 1.9161,-1.9173 z m -4.1811,-4.17989 c 1.0581,0 1.9158,0.8577 1.9158,1.9158 0,1.0584 -0.8577,1.91729 -1.9158,1.91729 -1.0584,0 -1.9173,-0.85889 -1.9173,-1.91729 0,-1.0581 0.8589,-1.9158 1.9173,-1.9158 z m 8.3601,16.72136 c 1.0581,0 1.9161,0.85782 1.9161,1.91604 0,1.05819 -0.858,1.91718 -1.9161,1.91718 -1.0584,0 -1.9161,-0.85898 -1.9161,-1.91718 0,-1.05822 0.8577,-1.91604 1.9161,-1.91604 z m 0,-4.18007 c 1.0581,0 1.9161,0.85898 1.9161,1.9172 0,1.05819 -0.858,1.91601 -1.9161,1.91601 -1.0584,0 -1.9161,-0.85781 -1.9161,-1.91601 0,-1.05822 0.8577,-1.9172 1.9161,-1.9172 z m 4.1799,-4.17999 c 1.0596,0 1.9173,0.8577 1.9173,1.91594 0,1.05936 -0.85769,1.91602 -1.9173,1.91602 -1.0569,0 -1.9146,-0.85665 -1.9146,-1.91602 0,-1.05825 0.8577,-1.91594 1.9146,-1.91594 z m -4.1799,-4.18141 c 1.0581,0 1.9161,0.8592 1.9161,1.9173 0,1.0581 -0.858,1.9161 -1.9161,1.9161 -1.0584,0 -1.9161,-0.85799 -1.9161,-1.9161 0,-1.0581 0.8577,-1.9173 1.9161,-1.9173 z m -4.179,-4.17989 c 1.0581,0 1.9161,0.8577 1.9161,1.9158 0,1.0584 -0.858,1.91729 -1.9161,1.91729 -1.0581,0 -1.9161,-0.85889 -1.9161,-1.91729 0,-1.0581 0.858,-1.9158 1.9161,-1.9158 z m -4.1811,-4.18021 c 1.0581,0 1.9158,0.85771 1.9158,1.91611 0,1.05809 -0.8577,1.9158 -1.9158,1.9158 -1.0584,0 -1.9173,-0.85771 -1.9173,-1.9158 0,-1.0584 0.8589,-1.91611 1.9173,-1.91611 z m -8.36144,20.90157 c 1.05945,0 1.91714,0.85782 1.91714,1.91604 0,1.05819 -0.85769,1.91718 -1.91714,1.91718 -1.05702,0 -1.91484,-0.85898 -1.91484,-1.91718 0,-1.05822 0.85782,-1.91604 1.91484,-1.91604 z m 4.18125,0 c 1.0581,0 1.9173,0.85782 1.9173,1.91604 0,1.05819 -0.8592,1.91718 -1.9173,1.91718 -1.0581,0 -1.9161,-0.85898 -1.9161,-1.91718 0,-1.05822 0.858,-1.91604 1.9161,-1.91604 z m 16.7988,-2.18786 0,4.10391 c 0,2.3496 -1.9077,4.25742 -4.2585,4.25742 -5.5722,0 -11.14681,0 -16.72155,0 -2.34961,0 -4.25508,-1.90782 -4.25508,-4.25742 l 0,-4.10391 c -2.31561,-0.041 -4.18125,-1.93242 -4.18125,-4.25626 0,-1.13445 0.44999,-2.21595 1.25156,-3.01514 4.18827,-4.1721 8.35552,-8.3649 12.54021,-12.5403 0.798,-0.7968 1.8786,-1.2423 3.006,-1.2423 1.1307,0 2.2113,0.4467 3.01051,1.2471 4.18229,4.1811 8.37059,8.3565 12.54599,12.5448 0.7956,0.7992 1.24111,1.8774 1.24111,3.00585 0,2.32383 -1.86451,4.21521 -4.17901,4.25625"
         inkscape:connector-curvature="0"
         sodipodi:nodetypes="sssssssssssssssssssssssssssssssssssssssssssssssssssssssssssssssssssssssssssssssssssssssssssssssssssssssssssssssssssssssssssssssssscsssscsccsccsc"
         inkscape:export-filename="C:\_projects\home.finance.ua\source\HomeFinance\res\drawable-ldpi\icon.png"
         inkscape:export-xdpi="73.161255"
         inkscape:export-ydpi="73.161255" />
      <path
         inkscape:export-ydpi="73.161255"
         inkscape:export-xdpi="73.161255"
         inkscape:export-filename="C:\_projects\home.finance.ua\source\HomeFinance\res\drawable-ldpi\icon.png"
         sodipodi:nodetypes="sssssssssssssssssssssssssssssssssssssssssssssssssssssssssssssssssssssssssssssssssssssssssssssssssssssssssssssssssssssssssssssssssscsssscsccsccsc"
         inkscape:connector-curvature="0"
         d="m 270.25079,703.60751 c 1.05809,0 1.9158,0.85782 1.9158,1.91604 0,1.05819 -0.85771,1.91718 -1.9158,1.91718 -1.0584,0 -1.9173,-0.85899 -1.9173,-1.91718 0,-1.05822 0.8589,-1.91604 1.9173,-1.91604 z m 0,-4.18008 c 1.05809,0 1.9158,0.85898 1.9158,1.9172 0,1.05819 -0.85771,1.91601 -1.9158,1.91601 -1.0584,0 -1.9173,-0.85781 -1.9173,-1.91601 0,-1.05822 0.8589,-1.9172 1.9173,-1.9172 z m -4.1802,0 c 1.05809,0 1.9173,0.85898 1.9173,1.9172 0,1.05819 -0.8592,1.91601 -1.9173,1.91601 -1.05811,0 -1.91611,-0.85781 -1.91611,-1.91601 0,-1.05822 0.858,-1.9172 1.91611,-1.9172 z m -4.18126,0 c 1.05946,0 1.91715,0.85898 1.91715,1.9172 0,1.05819 -0.85769,1.91601 -1.91715,1.91601 -1.05701,0 -1.91483,-0.85781 -1.91483,-1.91601 0,-1.05822 0.85782,-1.9172 1.91483,-1.9172 z m -4.1789,-4.17999 c 1.05822,0 1.91717,0.8577 1.91717,1.91594 0,1.05936 -0.85895,1.91602 -1.91717,1.91602 -1.05703,0 -1.91602,-0.85665 -1.91602,-1.91602 0,-1.05825 0.85899,-1.91594 1.91602,-1.91594 z m 4.1789,0 c 1.05946,0 1.91715,0.8577 1.91715,1.91594 0,1.05936 -0.85769,1.91602 -1.91715,1.91602 -1.05701,0 -1.91483,-0.85665 -1.91483,-1.91602 0,-1.05825 0.85782,-1.91594 1.91483,-1.91594 z m 4.18126,0 c 1.05809,0 1.9173,0.8577 1.9173,1.91594 0,1.05936 -0.8592,1.91602 -1.9173,1.91602 -1.05811,0 -1.91611,-0.85665 -1.91611,-1.91602 0,-1.05825 0.858,-1.91594 1.91611,-1.91594 z m 4.1802,0 c 1.05809,0 1.9158,0.8577 1.9158,1.91594 0,1.05936 -0.85771,1.91602 -1.9158,1.91602 -1.0584,0 -1.9173,-0.85665 -1.9173,-1.91602 0,-1.05825 0.8589,-1.91594 1.9173,-1.91594 z m 4.18109,0 c 1.05811,0 1.91611,0.8577 1.91611,1.91594 0,1.05936 -0.858,1.91602 -1.91611,1.91602 -1.05809,0 -1.91609,-0.85665 -1.91609,-1.91602 0,-1.05825 0.858,-1.91594 1.91609,-1.91594 z m -12.54255,-4.18141 c 1.05946,0 1.91715,0.8592 1.91715,1.9173 0,1.0581 -0.85769,1.9161 -1.91715,1.9161 -1.05701,0 -1.91483,-0.85799 -1.91483,-1.9161 0,-1.0581 0.85782,-1.9173 1.91483,-1.9173 z m 4.18126,0 c 1.05809,0 1.9173,0.8592 1.9173,1.9173 0,1.0581 -0.8592,1.9161 -1.9173,1.9161 -1.05811,0 -1.91611,-0.85799 -1.91611,-1.9161 0,-1.0581 0.858,-1.9173 1.91611,-1.9173 z m 4.1802,0 c 1.05809,0 1.9158,0.8592 1.9158,1.9173 0,1.0581 -0.85771,1.9161 -1.9158,1.9161 -1.0584,0 -1.9173,-0.85799 -1.9173,-1.9161 0,-1.0581 0.8589,-1.9173 1.9173,-1.9173 z m -4.1802,-4.17989 c 1.05809,0 1.9173,0.8577 1.9173,1.9158 0,1.0584 -0.8592,1.91729 -1.9173,1.91729 -1.05811,0 -1.91611,-0.85889 -1.91611,-1.91729 0,-1.0581 0.858,-1.9158 1.91611,-1.9158 z m 8.36129,16.72136 c 1.05811,0 1.91611,0.85782 1.91611,1.91604 0,1.05819 -0.858,1.91718 -1.91611,1.91718 -1.05809,0 -1.91609,-0.85898 -1.91609,-1.91718 0,-1.05822 0.858,-1.91604 1.91609,-1.91604 z m 0,-4.18007 c 1.05811,0 1.91611,0.85898 1.91611,1.9172 0,1.05819 -0.858,1.91601 -1.91611,1.91601 -1.05809,0 -1.91609,-0.85781 -1.91609,-1.91601 0,-1.05822 0.858,-1.9172 1.91609,-1.9172 z m 4.17901,-4.17999 c 1.0581,0 1.91609,0.8577 1.91609,1.91594 0,1.05936 -0.858,1.91602 -1.91609,1.91602 -1.0584,0 -1.9161,-0.85665 -1.9161,-1.91602 0,-1.05825 0.8577,-1.91594 1.9161,-1.91594 z m -4.17901,-4.18141 c 1.05811,0 1.91611,0.8592 1.91611,1.9173 0,1.0581 -0.858,1.9161 -1.91611,1.9161 -1.05809,0 -1.91609,-0.85799 -1.91609,-1.9161 0,-1.0581 0.858,-1.9173 1.91609,-1.9173 z m -4.18109,-4.17989 c 1.05809,0 1.9158,0.8577 1.9158,1.9158 0,1.0584 -0.85771,1.91729 -1.9158,1.91729 -1.0584,0 -1.9173,-0.85889 -1.9173,-1.91729 0,-1.0581 0.8589,-1.9158 1.9173,-1.9158 z m 8.3601,16.72136 c 1.0581,0 1.91609,0.85782 1.91609,1.91604 0,1.05819 -0.858,1.91718 -1.91609,1.91718 -1.0584,0 -1.9161,-0.85898 -1.9161,-1.91718 0,-1.05822 0.8577,-1.91604 1.9161,-1.91604 z m 0,-4.18007 c 1.0581,0 1.91609,0.85898 1.91609,1.9172 0,1.05819 -0.858,1.91601 -1.91609,1.91601 -1.0584,0 -1.9161,-0.85781 -1.9161,-1.91601 0,-1.05822 0.8577,-1.9172 1.9161,-1.9172 z m 4.17989,-4.17999 c 1.0596,0 1.9173,0.8577 1.9173,1.91594 0,1.05936 -0.8577,1.91602 -1.9173,1.91602 -1.05689,0 -1.9146,-0.85665 -1.9146,-1.91602 0,-1.05825 0.85771,-1.91594 1.9146,-1.91594 z m -4.17989,-4.18141 c 1.0581,0 1.91609,0.8592 1.91609,1.9173 0,1.0581 -0.858,1.9161 -1.91609,1.9161 -1.0584,0 -1.9161,-0.85799 -1.9161,-1.9161 0,-1.0581 0.8577,-1.9173 1.9161,-1.9173 z m -4.17901,-4.17989 c 1.05811,0 1.91611,0.8577 1.91611,1.9158 0,1.0584 -0.858,1.91729 -1.91611,1.91729 -1.05809,0 -1.91609,-0.85889 -1.91609,-1.91729 0,-1.0581 0.858,-1.9158 1.91609,-1.9158 z m -4.18109,-4.18021 c 1.05809,0 1.9158,0.85771 1.9158,1.91611 0,1.05809 -0.85771,1.9158 -1.9158,1.9158 -1.0584,0 -1.9173,-0.85771 -1.9173,-1.9158 0,-1.0584 0.8589,-1.91611 1.9173,-1.91611 z m -8.36145,20.90157 c 1.05945,0 1.91715,0.85782 1.91715,1.91604 0,1.05819 -0.8577,1.91718 -1.91715,1.91718 -1.05702,0 -1.91484,-0.85898 -1.91484,-1.91718 0,-1.05822 0.85782,-1.91604 1.91484,-1.91604 z m 4.18125,0 c 1.0581,0 1.9173,0.85782 1.9173,1.91604 0,1.05819 -0.8592,1.91718 -1.9173,1.91718 -1.0581,0 -1.9161,-0.85898 -1.9161,-1.91718 0,-1.05822 0.858,-1.91604 1.9161,-1.91604 z m 16.7988,-2.18786 0,4.10391 c 0,2.3496 -1.9077,4.25742 -4.2585,4.25742 -5.5722,0 -11.14681,0 -16.72156,0 -2.3496,0 -4.25507,-1.90782 -4.25507,-4.25742 l 0,-4.10391 c -2.31561,-0.041 -4.18126,-1.93242 -4.18126,-4.25626 0,-1.13445 0.45,-2.21595 1.25157,-3.01514 4.18827,-4.1721 8.35551,-8.3649 12.54021,-12.5403 0.798,-0.7968 1.8786,-1.2423 3.006,-1.2423 1.1307,0 2.2113,0.4467 3.01051,1.2471 4.18229,4.1811 8.3706,8.3565 12.54599,12.5448 0.7956,0.7992 1.24111,1.8774 1.24111,3.00585 0,2.32383 -1.86451,4.21521 -4.179,4.25625"
         style="fill:#ffffff;fill-opacity:1;fill-rule:evenodd;stroke:none;stroke-width:8;stroke-miterlimit:4;stroke-dasharray:none"
         id="path2999-9-2" />
    </g>
  </g>
</svg>
